<?xml version="1.0" standalone="no"?>
<!DOCTYPE svg PUBLIC "-//W3C//DTD SVG 20010904//EN"
 "http://www.w3.org/TR/2001/REC-SVG-20010904/DTD/svg10.dtd">
<svg version="1.0" xmlns="http://www.w3.org/2000/svg"
 width="260.000000pt" height="260.000000pt" viewBox="0 0 260.000000 260.000000"
 preserveAspectRatio="xMidYMid meet">
<metadata>
Created by potrace 1.14, written by Peter Selinger 2001-2017
</metadata>
<g transform="translate(0.000000,260.000000) scale(0.100000,-0.100000)"
fill="#000000" stroke="none">
<path d="M754 2246 c-46 -21 -86 -78 -89 -129 -8 -132 117 -213 235 -152 49
25 74 72 75 136 0 62 -17 94 -67 132 -34 25 -113 32 -154 13z"/>
<path d="M1530 1806 c-111 -31 -211 -111 -257 -204 -37 -76 -38 -192 -2 -267
31 -67 91 -125 168 -163 l62 -31 -51 -26 c-198 -100 -231 -302 -65 -400 15 -9
8 -16 -47 -43 -64 -31 -84 -55 -94 -109 -9 -50 35 -113 101 -142 100 -45 196
-60 360 -57 141 2 235 21 317 62 190 96 223 342 60 449 -58 38 -156 52 -360
54 -105 1 -193 6 -206 12 -57 26 -58 112 -3 153 23 17 43 20 145 21 127 2 177
14 268 66 169 96 219 300 109 445 -14 18 -25 34 -25 36 0 2 35 3 78 3 42 -1
82 0 88 2 6 2 10 26 10 56 l-2 52 -179 5 c-118 4 -190 10 -210 19 -40 18 -208
22 -265 7z m184 -56 c26 0 67 -54 82 -107 21 -74 26 -247 8 -331 -11 -53 -21
-74 -49 -102 -31 -30 -41 -35 -82 -34 -40 1 -51 6 -79 37 -42 46 -56 99 -57
222 -1 128 8 196 32 244 27 51 81 86 119 75 8 -2 19 -4 26 -4z m218 -1091 c55
-14 90 -51 85 -88 -8 -49 -27 -72 -80 -96 -72 -33 -143 -43 -269 -40 -92 2
-114 6 -161 29 -80 38 -108 93 -79 148 18 34 48 50 107 57 73 10 350 3 397
-10z"/>
<path d="M560 1770 c0 -13 7 -20 20 -20 29 0 76 -26 86 -47 4 -10 8 -214 9
-453 1 -239 6 -491 10 -560 15 -236 11 -260 -46 -260 -42 0 -59 33 -58 109 1
52 -3 66 -22 87 -67 71 -187 -19 -164 -124 8 -40 61 -100 103 -118 52 -22 193
-27 254 -9 77 23 141 75 172 140 8 17 15 32 15 35 0 3 5 19 12 35 9 22 13 179
14 618 l2 587 -203 0 c-197 0 -204 -1 -204 -20z"/>
</g>
</svg>
